<mxfile host="app.diagrams.net" modified="2023-11-12T02:03:21.530Z" agent="Mozilla/5.0 (Windows NT 10.0; Win64; x64) AppleWebKit/537.36 (KHTML, like Gecko) Chrome/119.0.0.0 Safari/537.36" etag="ffmdA8yHYvtfo26ID8ZR" version="22.1.0" type="device">
  <diagram id="C5RBs43oDa-KdzZeNtuy" name="Page-1">
    <mxGraphModel dx="794" dy="480" grid="1" gridSize="10" guides="1" tooltips="1" connect="1" arrows="1" fold="1" page="1" pageScale="1" pageWidth="827" pageHeight="1169" math="0" shadow="0">
      <root>
        <mxCell id="WIyWlLk6GJQsqaUBKTNV-0" />
        <mxCell id="WIyWlLk6GJQsqaUBKTNV-1" parent="WIyWlLk6GJQsqaUBKTNV-0" />
        <mxCell id="ha4Zft2RVcD-U_-fBfj3-2" value="" style="edgeStyle=none;curved=1;rounded=0;orthogonalLoop=1;jettySize=auto;html=1;fontSize=12;startSize=8;endSize=8;labelBackgroundColor=none;strokeColor=#60E696;fontColor=default;" parent="WIyWlLk6GJQsqaUBKTNV-1" source="ha4Zft2RVcD-U_-fBfj3-0" target="ha4Zft2RVcD-U_-fBfj3-1" edge="1">
          <mxGeometry relative="1" as="geometry" />
        </mxCell>
        <mxCell id="ha4Zft2RVcD-U_-fBfj3-0" value="Start" style="ellipse;whiteSpace=wrap;html=1;fontSize=16;labelBackgroundColor=none;fillColor=#F694C1;strokeColor=#AF45ED;fontColor=#095C86;" parent="WIyWlLk6GJQsqaUBKTNV-1" vertex="1">
          <mxGeometry x="280" y="80" width="100" height="60" as="geometry" />
        </mxCell>
        <mxCell id="ha4Zft2RVcD-U_-fBfj3-4" value="" style="edgeStyle=none;curved=1;rounded=0;orthogonalLoop=1;jettySize=auto;html=1;fontSize=12;startSize=8;endSize=8;labelBackgroundColor=none;strokeColor=#60E696;fontColor=default;" parent="WIyWlLk6GJQsqaUBKTNV-1" source="ha4Zft2RVcD-U_-fBfj3-1" target="ha4Zft2RVcD-U_-fBfj3-3" edge="1">
          <mxGeometry relative="1" as="geometry" />
        </mxCell>
        <mxCell id="ha4Zft2RVcD-U_-fBfj3-1" value="sales, acom" style="shape=parallelogram;perimeter=parallelogramPerimeter;whiteSpace=wrap;html=1;fixedSize=1;fontSize=16;labelBackgroundColor=none;fillColor=#F694C1;strokeColor=#AF45ED;fontColor=#095C86;" parent="WIyWlLk6GJQsqaUBKTNV-1" vertex="1">
          <mxGeometry x="270" y="200" width="120" height="60" as="geometry" />
        </mxCell>
        <mxCell id="ha4Zft2RVcD-U_-fBfj3-6" value="True" style="edgeStyle=none;curved=1;rounded=0;orthogonalLoop=1;jettySize=auto;html=1;fontSize=12;startSize=8;endSize=8;labelBackgroundColor=none;strokeColor=#60E696;fontColor=default;" parent="WIyWlLk6GJQsqaUBKTNV-1" source="ha4Zft2RVcD-U_-fBfj3-3" edge="1">
          <mxGeometry relative="1" as="geometry">
            <mxPoint x="510" y="360" as="targetPoint" />
          </mxGeometry>
        </mxCell>
        <mxCell id="ha4Zft2RVcD-U_-fBfj3-9" value="False" style="edgeStyle=none;curved=1;rounded=0;orthogonalLoop=1;jettySize=auto;html=1;fontSize=12;startSize=8;endSize=8;labelBackgroundColor=none;strokeColor=#60E696;fontColor=default;" parent="WIyWlLk6GJQsqaUBKTNV-1" source="ha4Zft2RVcD-U_-fBfj3-3" target="ha4Zft2RVcD-U_-fBfj3-8" edge="1">
          <mxGeometry relative="1" as="geometry" />
        </mxCell>
        <mxCell id="ha4Zft2RVcD-U_-fBfj3-3" value="sales&amp;lt;100" style="rhombus;whiteSpace=wrap;html=1;fontSize=16;labelBackgroundColor=none;fillColor=#F694C1;strokeColor=#AF45ED;fontColor=#095C86;" parent="WIyWlLk6GJQsqaUBKTNV-1" vertex="1">
          <mxGeometry x="265" y="320" width="130" height="80" as="geometry" />
        </mxCell>
        <mxCell id="ha4Zft2RVcD-U_-fBfj3-11" value="True" style="edgeStyle=none;curved=1;rounded=0;orthogonalLoop=1;jettySize=auto;html=1;fontSize=12;startSize=8;endSize=8;labelBackgroundColor=none;strokeColor=#60E696;fontColor=default;" parent="WIyWlLk6GJQsqaUBKTNV-1" source="ha4Zft2RVcD-U_-fBfj3-8" edge="1">
          <mxGeometry relative="1" as="geometry">
            <mxPoint x="510" y="520" as="targetPoint" />
          </mxGeometry>
        </mxCell>
        <mxCell id="ha4Zft2RVcD-U_-fBfj3-13" value="False" style="edgeStyle=none;curved=1;rounded=0;orthogonalLoop=1;jettySize=auto;html=1;fontSize=12;startSize=8;endSize=8;labelBackgroundColor=none;strokeColor=#60E696;fontColor=default;" parent="WIyWlLk6GJQsqaUBKTNV-1" source="ha4Zft2RVcD-U_-fBfj3-8" edge="1">
          <mxGeometry relative="1" as="geometry">
            <mxPoint x="330" y="640" as="targetPoint" />
          </mxGeometry>
        </mxCell>
        <mxCell id="ha4Zft2RVcD-U_-fBfj3-8" value="sales&amp;lt;300" style="rhombus;whiteSpace=wrap;html=1;fontSize=16;labelBackgroundColor=none;fillColor=#F694C1;strokeColor=#AF45ED;fontColor=#095C86;" parent="WIyWlLk6GJQsqaUBKTNV-1" vertex="1">
          <mxGeometry x="265" y="480" width="130" height="80" as="geometry" />
        </mxCell>
        <mxCell id="ha4Zft2RVcD-U_-fBfj3-17" value="" style="endArrow=none;html=1;rounded=0;fontSize=12;startSize=8;endSize=8;curved=1;exitX=1;exitY=0.5;exitDx=0;exitDy=0;labelBackgroundColor=none;strokeColor=#60E696;fontColor=default;" parent="WIyWlLk6GJQsqaUBKTNV-1" edge="1">
          <mxGeometry width="50" height="50" relative="1" as="geometry">
            <mxPoint x="710" y="520" as="sourcePoint" />
            <mxPoint x="760" y="520" as="targetPoint" />
          </mxGeometry>
        </mxCell>
        <mxCell id="ha4Zft2RVcD-U_-fBfj3-18" value="" style="endArrow=none;html=1;rounded=0;fontSize=12;startSize=8;endSize=8;curved=1;labelBackgroundColor=none;strokeColor=#60E696;fontColor=default;" parent="WIyWlLk6GJQsqaUBKTNV-1" edge="1">
          <mxGeometry width="50" height="50" relative="1" as="geometry">
            <mxPoint x="760" y="810" as="sourcePoint" />
            <mxPoint x="760" y="520" as="targetPoint" />
          </mxGeometry>
        </mxCell>
        <mxCell id="ha4Zft2RVcD-U_-fBfj3-19" value="" style="endArrow=classic;html=1;rounded=0;fontSize=12;startSize=8;endSize=8;curved=1;entryX=1;entryY=0.5;entryDx=0;entryDy=0;labelBackgroundColor=none;strokeColor=#60E696;fontColor=default;" parent="WIyWlLk6GJQsqaUBKTNV-1" target="fqprdKOapip84Un2ZJP5-1" edge="1">
          <mxGeometry width="50" height="50" relative="1" as="geometry">
            <mxPoint x="762.04" y="810" as="sourcePoint" />
            <mxPoint x="383.28" y="811.6800000000001" as="targetPoint" />
          </mxGeometry>
        </mxCell>
        <mxCell id="ha4Zft2RVcD-U_-fBfj3-20" value="" style="endArrow=none;html=1;rounded=0;fontSize=12;startSize=8;endSize=8;curved=1;exitX=1.012;exitY=0.117;exitDx=0;exitDy=0;exitPerimeter=0;labelBackgroundColor=none;strokeColor=#60E696;fontColor=default;" parent="WIyWlLk6GJQsqaUBKTNV-1" edge="1">
          <mxGeometry width="50" height="50" relative="1" as="geometry">
            <mxPoint x="710.0000000000001" y="361.01" as="sourcePoint" />
            <mxPoint x="760" y="361" as="targetPoint" />
          </mxGeometry>
        </mxCell>
        <mxCell id="ha4Zft2RVcD-U_-fBfj3-21" value="" style="endArrow=none;html=1;rounded=0;fontSize=12;startSize=8;endSize=8;curved=1;labelBackgroundColor=none;strokeColor=#60E696;fontColor=default;" parent="WIyWlLk6GJQsqaUBKTNV-1" edge="1">
          <mxGeometry width="50" height="50" relative="1" as="geometry">
            <mxPoint x="760" y="520" as="sourcePoint" />
            <mxPoint x="760" y="360" as="targetPoint" />
          </mxGeometry>
        </mxCell>
        <mxCell id="fqprdKOapip84Un2ZJP5-2" value="" style="edgeStyle=none;curved=1;rounded=0;orthogonalLoop=1;jettySize=auto;html=1;fontSize=12;startSize=8;endSize=8;labelBackgroundColor=none;strokeColor=#60E696;fontColor=default;" edge="1" parent="WIyWlLk6GJQsqaUBKTNV-1" source="fqprdKOapip84Un2ZJP5-0" target="fqprdKOapip84Un2ZJP5-1">
          <mxGeometry relative="1" as="geometry" />
        </mxCell>
        <mxCell id="fqprdKOapip84Un2ZJP5-0" value="acom = sales*20/100" style="rounded=1;whiteSpace=wrap;html=1;fontSize=16;labelBackgroundColor=none;fillColor=#F694C1;strokeColor=#AF45ED;fontColor=#095C86;" vertex="1" parent="WIyWlLk6GJQsqaUBKTNV-1">
          <mxGeometry x="240" y="640" width="180" height="60" as="geometry" />
        </mxCell>
        <mxCell id="fqprdKOapip84Un2ZJP5-4" value="" style="edgeStyle=none;curved=1;rounded=0;orthogonalLoop=1;jettySize=auto;html=1;fontSize=12;startSize=8;endSize=8;labelBackgroundColor=none;strokeColor=#60E696;fontColor=default;" edge="1" parent="WIyWlLk6GJQsqaUBKTNV-1" source="fqprdKOapip84Un2ZJP5-1" target="fqprdKOapip84Un2ZJP5-3">
          <mxGeometry relative="1" as="geometry" />
        </mxCell>
        <mxCell id="fqprdKOapip84Un2ZJP5-1" value="Tien hoa hong dai ly" style="shape=parallelogram;perimeter=parallelogramPerimeter;whiteSpace=wrap;html=1;fixedSize=1;fontSize=16;labelBackgroundColor=none;fillColor=#F694C1;strokeColor=#AF45ED;fontColor=#095C86;" vertex="1" parent="WIyWlLk6GJQsqaUBKTNV-1">
          <mxGeometry x="240" y="780" width="180" height="60" as="geometry" />
        </mxCell>
        <mxCell id="fqprdKOapip84Un2ZJP5-3" value="End" style="ellipse;whiteSpace=wrap;html=1;fontSize=16;labelBackgroundColor=none;fillColor=#F694C1;strokeColor=#AF45ED;fontColor=#095C86;" vertex="1" parent="WIyWlLk6GJQsqaUBKTNV-1">
          <mxGeometry x="270" y="930" width="120" height="80" as="geometry" />
        </mxCell>
        <mxCell id="fqprdKOapip84Un2ZJP5-5" value="acom = sales*5/100" style="rounded=1;whiteSpace=wrap;html=1;fontSize=16;labelBackgroundColor=none;fillColor=#F694C1;strokeColor=#AF45ED;fontColor=#095C86;" vertex="1" parent="WIyWlLk6GJQsqaUBKTNV-1">
          <mxGeometry x="510" y="330" width="200" height="60" as="geometry" />
        </mxCell>
        <mxCell id="fqprdKOapip84Un2ZJP5-6" value="acom = sales*10/100" style="rounded=1;whiteSpace=wrap;html=1;fontSize=16;labelBackgroundColor=none;fillColor=#F694C1;strokeColor=#AF45ED;fontColor=#095C86;" vertex="1" parent="WIyWlLk6GJQsqaUBKTNV-1">
          <mxGeometry x="510" y="490" width="200" height="60" as="geometry" />
        </mxCell>
      </root>
    </mxGraphModel>
  </diagram>
</mxfile>
